<svg xmlns="http://www.w3.org/2000/svg" version="1.1" xmlns:xlink="http://www.w3.org/1999/xlink" xmlns:svgjs="http://svgjs.com/svgjs" width="965" height="300" transform="matrix(1,0,0,1,0,0)" fill="#fff">
  <text font-family="DM Sans" font-size="260" text-anchor="left" x="310" charspacing="20px">
    <tspan dy="239.20000000000002" x="310">GMC</tspan>
  </text>
  <path transform="matrix(6.123233995736766e-17,1,-1,6.123233995736766e-17,148,149.33)" d="M14.566,37.223A2.72522440462134,2.72522440462134,352.57708474441876,0,0,20,37L20,37A21.569525308170405,21.569525308170405,54.35325429799981,0,1,54.547,20.29L86,44A10.680623961093112,10.680623961093112,-14.950289792645455,0,0,100.841,28.89L55.46,-29.115A25.790923887283007,25.790923887283007,-31.9800492497731,0,0,9.5,-10.5ZM-39.519,-5.997A2.7252244046266534,2.7252244046266534,-7.422915255593709,0,0,-42.043,-1.179L-42.043,-1.179A21.56952530818522,21.56952530818522,54.35325429801943,0,1,-44.845,37.095L-81.105,52.478A10.68062396108986,10.68062396108986,-14.950289792638051,0,0,-75.44,72.886L-2.516,62.587A25.790923887293733,25.790923887293733,-31.98004924978766,0,0,4.343,13.477ZM24.953,-31.226A2.725224404629374,2.725224404629374,-7.422915255603822,0,0,22.043,-35.821L22.043,-35.821A21.569525308174313,21.569525308174313,54.353254298013034,0,1,-9.702,-57.384L-4.895,-96.478A10.680623961086587,10.680623961086587,-14.950289792634079,0,0,-25.401,-101.776L-52.944,-33.472A25.79092388728268,25.79092388728268,-31.980049249775128,0,0,-13.843,-2.977Z"/>
</svg>